<?xml version="1.0" encoding="UTF-8"?>
<svg  viewBox="0 0 54 42" version="1.1" xmlns="http://www.w3.org/2000/svg" xmlns:xlink="http://www.w3.org/1999/xlink">
    <path d="M38.111,0 L38.1863172,0.00883792954 L7.31641379,0.00967586207 C6.50909321,0.00967586207 5.85434483,0.664424245 5.85434483,1.47174483 C5.85434483,2.23157596 6.43432955,2.85625664 7.17563146,2.92711931 L7.31641379,2.93381379 L27.0189931,2.93381379 L27.0189931,14.5419793 C27.0189931,15.2979549 27.6026066,15.9260375 28.3409201,15.9973138 L28.4810621,16.0040483 L38.1824414,16.0040483 C38.9384169,16.0040483 39.5664996,15.4204348 39.6377758,14.6821213 L39.6445103,14.5419793 L39.6445103,2.93381379 L47.4782621,2.93381379 C48.9031726,2.93381379 50.0718024,4.04763932 50.1595892,5.45072813 L50.1648828,5.62043448 L50.1648828,35.0826483 C50.1648828,36.5075589 49.0510572,37.6761886 47.6479684,37.7639754 L47.4782621,37.769269 L18.0160483,37.769269 C16.591748,37.769269 15.4234157,36.6553416 15.3356509,35.2523429 L15.3303586,35.0826483 L15.3303586,14.6144138 C15.3303586,13.8545827 14.7503739,13.229902 14.009072,13.1590393 L13.8682897,13.1523448 L8.94497931,13.1523448 C8.13765873,13.1523448 7.48291034,13.8070932 7.48291034,14.6144138 C7.48291034,15.3742449 8.06289507,15.9989256 8.80419698,16.0697883 L8.94497931,16.0764828 L12.4062207,16.0764828 L12.4062207,35.0826483 C12.4062207,38.1023243 14.8047404,40.5732027 17.7961339,40.6891518 L18.0160483,40.6934069 L47.4782621,40.6934069 C50.497811,40.6934069 52.9688105,38.2943014 53.0847653,35.3025857 L53.0890207,35.0826483 L53.0890207,5.62062069 C53.0890207,2.60103345 50.6898778,0.129893035 47.6981968,0.0139314658 L47.4782621,0.00967586207 L38.111,0 Z M43.9896759,30.5193034 L38.1898274,30.5190072 L38.0597726,30.5237163 C37.3022377,30.5822915 36.7123655,31.2166572 36.7123655,31.9813724 C36.7123655,32.7412036 37.2923502,33.3658842 38.0336522,33.4367469 L38.1744345,33.4434414 L43.9742829,33.4437377 L44.1043377,33.4390285 C44.8618727,33.3804534 45.4517448,32.7460876 45.4517448,31.9813724 C45.4517448,31.2215413 44.8717601,30.5968606 44.1304582,30.5259979 L43.9896759,30.5193034 Z M36.7203724,2.93381379 L36.7203724,13.0799103 L29.943131,13.0799103 L29.943131,2.93381379 L36.7203724,2.93381379 Z M12.9517793,6.57886897 L1.4774619,6.57857268 L1.34740712,6.58328182 C0.589872135,6.64185697 0,7.27622275 0,8.04093793 C0,8.80083542 0.579882225,9.42545755 1.32126855,9.4963131 L1.46206897,9.5030069 L12.9363864,9.50330318 L13.0664412,9.49859404 C13.8239761,9.44001889 14.4138483,8.80565311 14.4138483,8.04093793 C14.4138483,7.28110679 13.8338635,6.65642612 13.0925616,6.58556345 L12.9517793,6.57886897 Z"></path>
</svg>
